<mxfile host="app.diagrams.net" modified="2023-10-30T08:26:20.257Z" agent="Mozilla/5.0 (Windows NT 10.0; Win64; x64) AppleWebKit/537.36 (KHTML, like Gecko) Chrome/118.0.0.0 Safari/537.36 Edg/118.0.2088.76" etag="l6_g6Mgufdq5T7KyWfn6" version="22.0.8" type="github">
  <diagram name="第 1 页" id="EKEbSNTzWzbHu82JW9sO">
    <mxGraphModel dx="4146" dy="1560" grid="0" gridSize="10" guides="1" tooltips="1" connect="1" arrows="1" fold="1" page="0" pageScale="1" pageWidth="827" pageHeight="1169" background="none" math="0" shadow="0">
      <root>
        <mxCell id="0" />
        <mxCell id="1" parent="0" />
        <mxCell id="RrmuecX0L_cIQYUWVv-B-1" value="User" style="shape=umlActor;verticalLabelPosition=bottom;verticalAlign=top;html=1;" vertex="1" parent="1">
          <mxGeometry x="-1154" y="30" width="101" height="120" as="geometry" />
        </mxCell>
        <mxCell id="RrmuecX0L_cIQYUWVv-B-6" value="Liabrain&amp;nbsp;" style="shape=umlActor;verticalLabelPosition=bottom;verticalAlign=top;html=1;" vertex="1" parent="1">
          <mxGeometry x="9" y="-17" width="101" height="120" as="geometry" />
        </mxCell>
        <mxCell id="RrmuecX0L_cIQYUWVv-B-7" value="Student" style="shape=umlActor;verticalLabelPosition=bottom;verticalAlign=top;html=1;" vertex="1" parent="1">
          <mxGeometry x="-1245" y="286" width="101" height="120" as="geometry" />
        </mxCell>
        <mxCell id="RrmuecX0L_cIQYUWVv-B-8" value="Staff" style="shape=umlActor;verticalLabelPosition=bottom;verticalAlign=top;html=1;" vertex="1" parent="1">
          <mxGeometry x="-1048" y="286" width="101" height="120" as="geometry" />
        </mxCell>
        <mxCell id="RrmuecX0L_cIQYUWVv-B-9" value="User" style="shape=umlActor;verticalLabelPosition=bottom;verticalAlign=top;html=1;" vertex="1" parent="1">
          <mxGeometry x="-30" y="414" width="101" height="120" as="geometry" />
        </mxCell>
        <mxCell id="RrmuecX0L_cIQYUWVv-B-10" value="Authorization" style="ellipse;whiteSpace=wrap;html=1;" vertex="1" parent="1">
          <mxGeometry x="-804" y="29" width="140" height="70" as="geometry" />
        </mxCell>
        <mxCell id="RrmuecX0L_cIQYUWVv-B-11" value="invalid pwd or username" style="ellipse;whiteSpace=wrap;html=1;" vertex="1" parent="1">
          <mxGeometry x="-553" y="29" width="140" height="70" as="geometry" />
        </mxCell>
        <mxCell id="RrmuecX0L_cIQYUWVv-B-15" value="Extends" style="endArrow=block;endSize=16;endFill=0;html=1;rounded=0;" edge="1" parent="1" source="RrmuecX0L_cIQYUWVv-B-7">
          <mxGeometry width="160" relative="1" as="geometry">
            <mxPoint x="-1189.0047034422773" y="256" as="sourcePoint" />
            <mxPoint x="-1130.3073652694611" y="137" as="targetPoint" />
          </mxGeometry>
        </mxCell>
        <mxCell id="RrmuecX0L_cIQYUWVv-B-25" value="Extends" style="endArrow=block;endSize=16;endFill=0;html=1;rounded=0;exitX=0.5;exitY=0;exitDx=0;exitDy=0;exitPerimeter=0;" edge="1" parent="1" source="RrmuecX0L_cIQYUWVv-B-8">
          <mxGeometry width="160" relative="1" as="geometry">
            <mxPoint x="-995" y="249" as="sourcePoint" />
            <mxPoint x="-1064.9973652694612" y="145" as="targetPoint" />
          </mxGeometry>
        </mxCell>
        <mxCell id="RrmuecX0L_cIQYUWVv-B-26" value="Request new book" style="ellipse;whiteSpace=wrap;html=1;" vertex="1" parent="1">
          <mxGeometry x="-807" y="142" width="140" height="70" as="geometry" />
        </mxCell>
        <mxCell id="RrmuecX0L_cIQYUWVv-B-27" value="reserve a book" style="ellipse;whiteSpace=wrap;html=1;" vertex="1" parent="1">
          <mxGeometry x="-814" y="369" width="140" height="70" as="geometry" />
        </mxCell>
        <mxCell id="RrmuecX0L_cIQYUWVv-B-28" value="invalid renewal" style="ellipse;whiteSpace=wrap;html=1;" vertex="1" parent="1">
          <mxGeometry x="-564" y="416" width="140" height="70" as="geometry" />
        </mxCell>
        <mxCell id="RrmuecX0L_cIQYUWVv-B-29" value="feedback" style="ellipse;whiteSpace=wrap;html=1;" vertex="1" parent="1">
          <mxGeometry x="-810" y="502" width="140" height="70" as="geometry" />
        </mxCell>
        <mxCell id="RrmuecX0L_cIQYUWVv-B-30" value="fill up feedback form" style="ellipse;whiteSpace=wrap;html=1;" vertex="1" parent="1">
          <mxGeometry x="-519" y="529" width="140" height="70" as="geometry" />
        </mxCell>
        <mxCell id="RrmuecX0L_cIQYUWVv-B-31" value="pay fine" style="ellipse;whiteSpace=wrap;html=1;" vertex="1" parent="1">
          <mxGeometry x="-818" y="635" width="140" height="70" as="geometry" />
        </mxCell>
        <mxCell id="RrmuecX0L_cIQYUWVv-B-32" value="register" style="ellipse;whiteSpace=wrap;html=1;" vertex="1" parent="1">
          <mxGeometry x="-802" y="-100" width="140" height="70" as="geometry" />
        </mxCell>
        <mxCell id="RrmuecX0L_cIQYUWVv-B-33" value="fill up registration form" style="ellipse;whiteSpace=wrap;html=1;" vertex="1" parent="1">
          <mxGeometry x="-561.9200000000001" y="-220" width="140" height="70" as="geometry" />
        </mxCell>
        <mxCell id="RrmuecX0L_cIQYUWVv-B-34" value="get liabrary cardID" style="ellipse;whiteSpace=wrap;html=1;" vertex="1" parent="1">
          <mxGeometry x="-516" y="-105" width="140" height="70" as="geometry" />
        </mxCell>
        <mxCell id="RrmuecX0L_cIQYUWVv-B-43" value="" style="endArrow=block;endFill=1;html=1;edgeStyle=orthogonalEdgeStyle;align=left;verticalAlign=top;rounded=0;" edge="1" parent="1" target="RrmuecX0L_cIQYUWVv-B-34">
          <mxGeometry x="-1" relative="1" as="geometry">
            <mxPoint x="-663" y="-70" as="sourcePoint" />
            <mxPoint x="-309.94000000000017" y="-171.98000000000002" as="targetPoint" />
          </mxGeometry>
        </mxCell>
        <mxCell id="RrmuecX0L_cIQYUWVv-B-48" value="" style="html=1;verticalAlign=bottom;endArrow=block;curved=0;rounded=0;exitX=0.875;exitY=0.144;exitDx=0;exitDy=0;exitPerimeter=0;" edge="1" parent="1" source="RrmuecX0L_cIQYUWVv-B-32" target="RrmuecX0L_cIQYUWVv-B-33">
          <mxGeometry width="80" relative="1" as="geometry">
            <mxPoint x="-678.0012932590594" y="-89.53631348283523" as="sourcePoint" />
            <mxPoint x="-597.9200000000001" y="-92" as="targetPoint" />
          </mxGeometry>
        </mxCell>
        <mxCell id="RrmuecX0L_cIQYUWVv-B-49" value="&amp;lt;&amp;lt;includes&amp;gt;&amp;gt;" style="text;html=1;strokeColor=none;fillColor=none;align=center;verticalAlign=middle;whiteSpace=wrap;rounded=0;rotation=-27;" vertex="1" parent="1">
          <mxGeometry x="-653.9200000000001" y="-150" width="60" height="30" as="geometry" />
        </mxCell>
        <mxCell id="RrmuecX0L_cIQYUWVv-B-50" value="&amp;lt;&amp;lt;includes&amp;gt;&amp;gt;" style="text;html=1;strokeColor=none;fillColor=none;align=center;verticalAlign=middle;whiteSpace=wrap;rounded=0;" vertex="1" parent="1">
          <mxGeometry x="-613.0000000000001" y="-97" width="60" height="30" as="geometry" />
        </mxCell>
        <mxCell id="RrmuecX0L_cIQYUWVv-B-51" value="" style="endArrow=block;endFill=1;html=1;edgeStyle=orthogonalEdgeStyle;align=left;verticalAlign=top;rounded=0;" edge="1" parent="1" source="RrmuecX0L_cIQYUWVv-B-10" target="RrmuecX0L_cIQYUWVv-B-11">
          <mxGeometry x="-1" relative="1" as="geometry">
            <mxPoint x="-736" y="-48" as="sourcePoint" />
            <mxPoint x="-543" y="-48" as="targetPoint" />
          </mxGeometry>
        </mxCell>
        <mxCell id="RrmuecX0L_cIQYUWVv-B-53" value="&amp;lt;&amp;lt;excludes&amp;gt;&amp;gt;" style="text;html=1;strokeColor=none;fillColor=none;align=center;verticalAlign=middle;whiteSpace=wrap;rounded=0;" vertex="1" parent="1">
          <mxGeometry x="-641" y="43" width="60" height="30" as="geometry" />
        </mxCell>
        <mxCell id="RrmuecX0L_cIQYUWVv-B-57" value="" style="rounded=0;whiteSpace=wrap;html=1;fillColor=none;" vertex="1" parent="1">
          <mxGeometry x="-936" y="-244" width="853.5" height="958" as="geometry" />
        </mxCell>
        <mxCell id="RrmuecX0L_cIQYUWVv-B-60" value="" style="html=1;verticalAlign=bottom;endArrow=block;curved=0;rounded=0;entryX=0;entryY=0.5;entryDx=0;entryDy=0;" edge="1" parent="1" source="RrmuecX0L_cIQYUWVv-B-27" target="RrmuecX0L_cIQYUWVv-B-28">
          <mxGeometry width="80" relative="1" as="geometry">
            <mxPoint x="-670" y="337" as="sourcePoint" />
            <mxPoint x="-590" y="337" as="targetPoint" />
          </mxGeometry>
        </mxCell>
        <mxCell id="RrmuecX0L_cIQYUWVv-B-61" value="&amp;lt;&amp;lt;excludes&amp;gt;&amp;gt;" style="text;html=1;strokeColor=none;fillColor=none;align=center;verticalAlign=middle;whiteSpace=wrap;rounded=0;rotation=15;" vertex="1" parent="1">
          <mxGeometry x="-653" y="416" width="60" height="30" as="geometry" />
        </mxCell>
        <mxCell id="RrmuecX0L_cIQYUWVv-B-62" value="&amp;lt;&amp;lt;includes&amp;gt;&amp;gt;" style="text;html=1;strokeColor=none;fillColor=none;align=center;verticalAlign=middle;whiteSpace=wrap;rounded=0;rotation=15;" vertex="1" parent="1">
          <mxGeometry x="-628" y="529" width="68" height="27" as="geometry" />
        </mxCell>
        <mxCell id="RrmuecX0L_cIQYUWVv-B-63" value="" style="html=1;verticalAlign=bottom;endArrow=block;curved=0;rounded=0;entryX=0.032;entryY=0.702;entryDx=0;entryDy=0;entryPerimeter=0;" edge="1" parent="1" target="RrmuecX0L_cIQYUWVv-B-30">
          <mxGeometry width="80" relative="1" as="geometry">
            <mxPoint x="-673" y="538" as="sourcePoint" />
            <mxPoint x="-593" y="538" as="targetPoint" />
          </mxGeometry>
        </mxCell>
        <mxCell id="RrmuecX0L_cIQYUWVv-B-64" value="renew a book" style="ellipse;whiteSpace=wrap;html=1;" vertex="1" parent="1">
          <mxGeometry x="-810" y="246" width="140" height="70" as="geometry" />
        </mxCell>
        <mxCell id="RrmuecX0L_cIQYUWVv-B-65" value="Add record" style="ellipse;whiteSpace=wrap;html=1;" vertex="1" parent="1">
          <mxGeometry x="-294" y="-109" width="140" height="70" as="geometry" />
        </mxCell>
        <mxCell id="RrmuecX0L_cIQYUWVv-B-66" value="delete book record" style="ellipse;whiteSpace=wrap;html=1;" vertex="1" parent="1">
          <mxGeometry x="-269" y="69" width="140" height="70" as="geometry" />
        </mxCell>
        <mxCell id="RrmuecX0L_cIQYUWVv-B-67" value="update book record" style="ellipse;whiteSpace=wrap;html=1;" vertex="1" parent="1">
          <mxGeometry x="-279" y="230" width="140" height="70" as="geometry" />
        </mxCell>
        <mxCell id="RrmuecX0L_cIQYUWVv-B-74" value="prepare liabrary database" style="ellipse;whiteSpace=wrap;html=1;" vertex="1" parent="1">
          <mxGeometry x="-397" y="416.5" width="182" height="95" as="geometry" />
        </mxCell>
        <mxCell id="RrmuecX0L_cIQYUWVv-B-82" value="" style="endArrow=none;html=1;rounded=0;entryX=0.093;entryY=0.305;entryDx=0;entryDy=0;entryPerimeter=0;" edge="1" parent="1" source="RrmuecX0L_cIQYUWVv-B-65" target="RrmuecX0L_cIQYUWVv-B-6">
          <mxGeometry width="50" height="50" relative="1" as="geometry">
            <mxPoint x="-74" y="30" as="sourcePoint" />
            <mxPoint x="-24" y="-20" as="targetPoint" />
          </mxGeometry>
        </mxCell>
        <mxCell id="RrmuecX0L_cIQYUWVv-B-83" value="" style="endArrow=none;html=1;rounded=0;entryX=0.5;entryY=0.5;entryDx=0;entryDy=0;entryPerimeter=0;exitX=1;exitY=0.5;exitDx=0;exitDy=0;" edge="1" parent="1" source="RrmuecX0L_cIQYUWVv-B-66" target="RrmuecX0L_cIQYUWVv-B-6">
          <mxGeometry width="50" height="50" relative="1" as="geometry">
            <mxPoint x="-125" y="20" as="sourcePoint" />
            <mxPoint x="-75" y="-30" as="targetPoint" />
          </mxGeometry>
        </mxCell>
        <mxCell id="RrmuecX0L_cIQYUWVv-B-84" value="" style="endArrow=none;html=1;rounded=0;" edge="1" parent="1" source="RrmuecX0L_cIQYUWVv-B-67" target="RrmuecX0L_cIQYUWVv-B-6">
          <mxGeometry width="50" height="50" relative="1" as="geometry">
            <mxPoint x="-125" y="20" as="sourcePoint" />
            <mxPoint x="-75" y="-30" as="targetPoint" />
          </mxGeometry>
        </mxCell>
        <mxCell id="RrmuecX0L_cIQYUWVv-B-89" value="" style="endArrow=none;html=1;rounded=0;exitX=1;exitY=0.5;exitDx=0;exitDy=0;" edge="1" parent="1" source="RrmuecX0L_cIQYUWVv-B-74" target="RrmuecX0L_cIQYUWVv-B-9">
          <mxGeometry width="50" height="50" relative="1" as="geometry">
            <mxPoint x="-89" y="555" as="sourcePoint" />
            <mxPoint x="-39" y="505" as="targetPoint" />
          </mxGeometry>
        </mxCell>
        <mxCell id="RrmuecX0L_cIQYUWVv-B-93" value="" style="endArrow=none;html=1;rounded=0;entryX=0.069;entryY=0.707;entryDx=0;entryDy=0;entryPerimeter=0;" edge="1" parent="1" source="RrmuecX0L_cIQYUWVv-B-1" target="RrmuecX0L_cIQYUWVv-B-32">
          <mxGeometry width="50" height="50" relative="1" as="geometry">
            <mxPoint x="-613" y="294" as="sourcePoint" />
            <mxPoint x="-563" y="244" as="targetPoint" />
          </mxGeometry>
        </mxCell>
        <mxCell id="RrmuecX0L_cIQYUWVv-B-94" value="" style="endArrow=none;html=1;rounded=0;" edge="1" parent="1" source="RrmuecX0L_cIQYUWVv-B-1" target="RrmuecX0L_cIQYUWVv-B-10">
          <mxGeometry width="50" height="50" relative="1" as="geometry">
            <mxPoint x="-656" y="347" as="sourcePoint" />
            <mxPoint x="-606" y="297" as="targetPoint" />
          </mxGeometry>
        </mxCell>
        <mxCell id="RrmuecX0L_cIQYUWVv-B-95" value="" style="endArrow=none;html=1;rounded=0;" edge="1" parent="1" target="RrmuecX0L_cIQYUWVv-B-26">
          <mxGeometry width="50" height="50" relative="1" as="geometry">
            <mxPoint x="-1048" y="112" as="sourcePoint" />
            <mxPoint x="-606" y="297" as="targetPoint" />
          </mxGeometry>
        </mxCell>
        <mxCell id="RrmuecX0L_cIQYUWVv-B-96" value="" style="endArrow=none;html=1;rounded=0;entryX=0;entryY=0.5;entryDx=0;entryDy=0;" edge="1" parent="1" source="RrmuecX0L_cIQYUWVv-B-1" target="RrmuecX0L_cIQYUWVv-B-64">
          <mxGeometry width="50" height="50" relative="1" as="geometry">
            <mxPoint x="-656" y="347" as="sourcePoint" />
            <mxPoint x="-606" y="297" as="targetPoint" />
          </mxGeometry>
        </mxCell>
        <mxCell id="RrmuecX0L_cIQYUWVv-B-97" value="" style="endArrow=none;html=1;rounded=0;entryX=0.073;entryY=0.285;entryDx=0;entryDy=0;entryPerimeter=0;" edge="1" parent="1" source="RrmuecX0L_cIQYUWVv-B-1" target="RrmuecX0L_cIQYUWVv-B-27">
          <mxGeometry width="50" height="50" relative="1" as="geometry">
            <mxPoint x="-656" y="347" as="sourcePoint" />
            <mxPoint x="-606" y="297" as="targetPoint" />
          </mxGeometry>
        </mxCell>
        <mxCell id="RrmuecX0L_cIQYUWVv-B-98" value="" style="endArrow=none;html=1;rounded=0;" edge="1" parent="1" source="RrmuecX0L_cIQYUWVv-B-1" target="RrmuecX0L_cIQYUWVv-B-29">
          <mxGeometry width="50" height="50" relative="1" as="geometry">
            <mxPoint x="-630" y="320" as="sourcePoint" />
            <mxPoint x="-580" y="270" as="targetPoint" />
          </mxGeometry>
        </mxCell>
        <mxCell id="RrmuecX0L_cIQYUWVv-B-99" value="" style="endArrow=none;html=1;rounded=0;" edge="1" parent="1" source="RrmuecX0L_cIQYUWVv-B-1" target="RrmuecX0L_cIQYUWVv-B-31">
          <mxGeometry width="50" height="50" relative="1" as="geometry">
            <mxPoint x="-656" y="347" as="sourcePoint" />
            <mxPoint x="-606" y="297" as="targetPoint" />
          </mxGeometry>
        </mxCell>
      </root>
    </mxGraphModel>
  </diagram>
</mxfile>
